<?xml version="1.0" encoding="utf-8"?>
<!-- Generator: Adobe Illustrator 22.1.0, SVG Export Plug-In . SVG Version: 6.00 Build 0)  -->
<svg version="1.1" id="Layer_1" xmlns="http://www.w3.org/2000/svg" xmlns:xlink="http://www.w3.org/1999/xlink" x="0px" y="0px"
	 viewBox="0 0 100 100" style="enable-background:new 0 0 100 100;" xml:space="preserve">
<style type="text/css">
	.st0{fill:#FFFFFF;}
</style>
<g>
	<path class="st0" d="M98.7,70.2c-0.4,7.8-2.2,14.8-7.9,20.5c-5.7,5.7-12.7,7.5-20.5,7.9C63.5,99.1,56.8,99,50,99
		s-13.5,0.1-20.2-0.3c-7.8-0.4-14.8-2.2-20.5-7.9C3.5,85,1.7,78.1,1.3,70.2C0.9,63.5,1,56.8,1,50S0.9,36.5,1.3,29.8
		C1.7,21.9,3.5,15,9.2,9.2C15,3.5,21.9,1.7,29.8,1.3C36.5,0.9,43.2,1,50,1s13.5-0.1,20.2,0.3C78.1,1.7,85,3.5,90.8,9.2
		c5.7,5.7,7.5,12.7,7.9,20.5C99.1,36.5,99,43.2,99,50S99.1,63.5,98.7,70.2z M21.1,11.8c-2.2,0.9-3.9,2-5.6,3.7
		c-1.7,1.7-2.8,3.4-3.7,5.6c-2.5,6.4-2,21.8-2,28.9s-0.6,22.5,2,28.9c0.9,2.2,2,3.9,3.7,5.6c1.7,1.7,3.4,2.8,5.6,3.7
		c6.4,2.5,21.8,2,28.9,2s22.5,0.6,28.9-2c2.2-0.9,3.9-2,5.6-3.7c1.7-1.7,2.8-3.4,3.7-5.6c2.5-6.4,2-21.8,2-28.9s0.6-22.5-2-28.9
		c-0.9-2.2-2-3.9-3.7-5.6c-1.7-1.7-3.4-2.8-5.6-3.7c-6.4-2.5-21.8-2-28.9-2S27.5,9.2,21.1,11.8z M50,75.1
		c-13.9,0-25.1-11.2-25.1-25.1S36.1,24.9,50,24.9c13.9,0,25.1,11.2,25.1,25.1S63.9,75.1,50,75.1z M50,33.7c-9,0-16.3,7.3-16.3,16.3
		S41,66.3,50,66.3S66.3,59,66.3,50S59,33.7,50,33.7z M76.2,29.7c-3.2,0-5.9-2.6-5.9-5.9c0-3.3,2.6-5.9,5.9-5.9
		c3.3,0,5.9,2.6,5.9,5.9C82,27.1,79.4,29.7,76.2,29.7z"/>
</g>
</svg>
